# Blender v2.90.0 OBJ File: 'nasa-lunar-rover.blend'
# www.blender.org
mtllib Frame-LP.mtl
o Frame_LP_Cube
v 1.101691 0.455893 0.720898
v 1.101691 0.522568 0.720898
v 1.101691 0.455893 0.654223
v 2.458051 0.455893 0.720898
v 2.458051 0.522568 0.720898
v 2.458051 0.455893 0.654223
v 1.101691 0.455893 -0.716843
v 1.101691 0.522568 -0.716843
v 2.458051 0.522568 -0.650168
v 2.458051 0.455893 -0.716843
v 2.458051 0.522568 -0.716843
v 1.166553 0.455893 0.656162
v 1.168366 0.522568 0.654224
v 1.101691 0.522568 0.654224
v 1.166553 0.455893 -0.652097
v 1.168366 0.522568 -0.650168
v 1.101691 0.455893 -0.650168
v 1.101691 0.522568 -0.650168
v 2.458051 0.522568 0.654224
v 2.393189 0.455893 0.656162
v 2.391376 0.522568 0.654224
v 2.458051 0.455893 -0.650168
v 2.393189 0.455893 -0.652097
v 2.391376 0.522568 -0.650168
v 1.168366 0.522568 -0.716843
v 1.168366 0.455893 -0.716843
v 2.391376 0.522568 -0.716843
v 2.391376 0.455893 -0.716843
v 0.354774 0.455893 0.479865
v 0.354774 0.522568 0.479865
v 1.101691 0.455893 0.479865
v 1.101691 0.522568 0.479865
v 1.101691 0.455893 0.413190
v 1.101691 0.522568 0.413190
v 0.354774 0.522568 -0.414215
v 0.354774 0.455893 -0.480890
v 0.354774 0.522568 -0.480890
v 1.101691 0.455893 -0.414215
v 1.101691 0.522568 -0.414215
v 1.101691 0.455893 -0.480890
v 1.101691 0.522568 -0.480890
v 0.421449 0.455893 0.413190
v 0.421449 0.522568 0.413190
v 0.354774 0.455893 0.413190
v 0.354774 0.522568 0.413190
v 0.421449 0.455893 -0.414215
v 0.421449 0.522568 -0.414215
v 0.354774 0.455893 -0.414215
v 2.458051 0.455893 0.479865
v 2.458051 0.522568 0.479865
v 2.458051 0.455893 0.413190
v 2.458051 0.522568 0.413190
v 3.232282 0.455893 0.479865
v 3.232282 0.522568 0.479865
v 2.458051 0.455893 -0.414215
v 2.458051 0.522568 -0.414215
v 2.458051 0.455893 -0.480890
v 2.458051 0.522568 -0.480890
v 3.232282 0.455893 -0.480890
v 3.232282 0.522568 -0.480890
v 3.232282 0.455893 0.413190
v 3.232282 0.522568 0.413190
v 3.165607 0.455893 0.413190
v 3.165607 0.522568 0.413190
v 3.232282 0.455893 -0.414215
v 3.232282 0.522568 -0.414215
v 3.165607 0.455893 -0.414215
v 3.165607 0.522568 -0.414215
v 2.391376 0.522568 0.720898
v 2.391376 0.455893 0.720898
v 1.168366 0.455893 0.720898
v 1.168366 0.522568 0.720898
v 3.165607 0.455893 -0.480890
v 3.165607 0.522568 -0.480890
v 3.165607 0.522568 0.479865
v 3.165607 0.455893 0.479865
v 2.391376 0.522568 -0.480890
v 2.393189 0.455893 -0.482317
v 2.391376 0.522568 -0.414215
v 2.393189 0.455893 -0.415444
v 1.166553 0.455893 -0.415444
v 1.166553 0.455893 -0.482317
v 1.168366 0.522568 -0.480890
v 1.168366 0.522568 -0.414215
v 1.166553 0.455893 0.414414
v 1.168366 0.522568 0.413190
v 1.168366 0.522568 0.479865
v 1.166553 0.455893 0.481287
v 0.421448 0.522568 0.479865
v 0.421448 0.455893 0.479865
v 0.421449 0.522568 -0.480890
v 0.421449 0.455893 -0.480890
v 2.393189 0.455893 0.481287
v 2.391376 0.522568 0.479865
v 2.391376 0.522568 0.413190
v 2.393189 0.455893 0.414414
vt 0.375000 0.000000
vt 0.625000 0.000000
vt 0.625000 0.250000
vt 0.375000 0.250000
vt 0.375000 0.487711
vt 0.625000 0.487711
vt 0.625000 0.500000
vt 0.375000 0.500000
vt 0.625000 0.750000
vt 0.375000 0.750000
vt 0.375000 0.987711
vt 0.625000 0.987711
vt 0.625000 1.000000
vt 0.375000 1.000000
vt 0.000000 0.000000
vt 0.000000 0.000000
vt 0.000000 0.000000
vt 0.000000 0.000000
vt 0.375000 0.000000
vt 0.625000 0.000000
vt 0.625000 0.250000
vt 0.375000 0.250000
vt 0.375000 0.487711
vt 0.625000 0.487711
vt 0.625000 0.500000
vt 0.375000 0.500000
vt 0.625000 0.750000
vt 0.375000 0.750000
vt 0.862711 0.500000
vt 0.875000 0.500000
vt 0.875000 0.750000
vt 0.862711 0.750000
vt 0.375000 0.000000
vt 0.625000 0.000000
vt 0.375000 0.467556
vt 0.625000 0.467556
vt 0.625000 0.500000
vt 0.375000 0.500000
vt 0.625000 0.750000
vt 0.375000 0.750000
vt 0.375000 0.966582
vt 0.625000 0.966582
vt 0.625000 1.000000
vt 0.375000 1.000000
vt 0.841582 0.500000
vt 0.875000 0.500000
vt 0.875000 0.750000
vt 0.841582 0.750000
vt 0.375000 0.467556
vt 0.625000 0.467556
vt 0.625000 0.500000
vt 0.375000 0.500000
vt 0.375000 0.966582
vt 0.625000 0.966582
vt 0.625000 1.000000
vt 0.375000 1.000000
vt 0.637289 0.500000
vt 0.637289 0.750000
vt 0.375000 0.000000
vt 0.625000 0.000000
vt 0.625000 0.250000
vt 0.375000 0.250000
vt 0.375000 0.272317
vt 0.625000 0.272317
vt 0.625000 0.500000
vt 0.375000 0.500000
vt 0.375000 0.977683
vt 0.625000 0.977683
vt 0.625000 1.000000
vt 0.375000 1.000000
vt 0.147317 0.500000
vt 0.375000 0.750000
vt 0.147317 0.750000
vt 0.852683 0.500000
vt 0.875000 0.500000
vt 0.875000 0.750000
vt 0.852683 0.750000
vt 0.375000 0.000000
vt 0.625000 0.000000
vt 0.625000 0.250000
vt 0.375000 0.250000
vt 0.375000 0.272317
vt 0.625000 0.272317
vt 0.625000 0.500000
vt 0.375000 0.500000
vt 0.375000 0.977683
vt 0.625000 0.977683
vt 0.625000 1.000000
vt 0.375000 1.000000
vt 0.147317 0.500000
vt 0.375000 0.750000
vt 0.147317 0.750000
vt 0.852683 0.500000
vt 0.875000 0.500000
vt 0.875000 0.750000
vt 0.852683 0.750000
vt 0.625000 0.500000
vt 0.375000 0.500000
vt 0.375000 0.750000
vt 0.625000 0.750000
vt 0.625000 1.000000
vt 0.375000 1.000000
vt 0.125000 0.500000
vt 0.125000 0.750000
vt 0.875000 0.750000
vt 0.375000 0.478471
vt 0.625000 0.478471
vt 0.625000 0.500000
vt 0.375000 0.500000
vt 0.625000 0.750000
vt 0.375000 0.750000
vt 0.375000 0.771529
vt 0.625000 0.771529
vt 0.625000 1.000000
vt 0.375000 1.000000
vt 0.353471 0.500000
vt 0.353471 0.750000
vt 0.646529 0.500000
vt 0.875000 0.500000
vt 0.875000 0.750000
vt 0.646529 0.750000
vt 0.375000 0.478470
vt 0.625000 0.478470
vt 0.625000 0.500000
vt 0.375000 0.500000
vt 0.625000 0.750000
vt 0.375000 0.750000
vt 0.375000 0.771529
vt 0.625000 0.771529
vt 0.625000 1.000000
vt 0.375000 1.000000
vt 0.353471 0.500000
vt 0.353471 0.750000
vt 0.646529 0.500000
vt 0.875000 0.500000
vt 0.875000 0.750000
vt 0.646529 0.750000
vt 0.375000 0.250000
vt 0.625000 0.250000
vt 0.625000 0.500000
vt 0.375000 0.500000
vt 0.625000 1.000000
vt 0.375000 1.000000
vt 0.125000 0.500000
vt 0.125000 0.750000
vt 0.875000 0.500000
vt 0.875000 0.750000
vt 0.375000 0.262289
vt 0.625000 0.262289
vt 0.375000 0.762289
vt 0.625000 0.762289
vt 0.625000 0.987711
vt 0.375000 0.987711
vt 0.000000 0.000000
vt 0.000000 0.000000
vt 0.000000 0.000000
vt 0.000000 0.000000
vt 0.375000 0.762289
vt 0.625000 0.762289
vt 0.375000 0.262289
vt 0.625000 0.262289
vt 0.375000 0.782444
vt 0.375000 0.498405
vt 0.375000 0.359257
vt 0.375000 0.283418
vt 0.125000 0.500000
vt 0.125000 0.750000
vt 0.375000 0.250000
vt 0.625000 0.250000
vt 0.125000 0.500000
vt 0.125000 0.750000
vt 0.375000 0.250000
vt 0.625000 0.250000
vt 0.375000 0.454777
vt 0.625000 0.454777
vt 0.625000 0.782444
vt 0.657444 0.500000
vt 0.657444 0.750000
vt 0.625000 0.795223
vt 0.375000 0.795223
vt 0.375000 0.953804
vt 0.625000 0.953803
vt 0.375000 0.296196
vt 0.625000 0.296196
vt 0.375000 0.893569
vt 0.657444 0.500000
vt 0.657444 0.750000
vt 0.625000 0.782444
vt 0.375000 0.782444
vt 0.375000 0.454777
vt 0.625000 0.454777
vt 0.375000 0.296197
vt 0.625000 0.296197
vt 0.375000 0.856488
vt 0.670223 0.500000
vt 0.670223 0.750000
vt 0.625000 0.795223
vt 0.375000 0.795223
vt 0.625000 0.283418
vt 0.375000 0.396337
vt 0.828803 0.500000
vt 0.828804 0.750000
vt 0.625000 0.953804
vt 0.375000 0.953804
vt 0.625000 0.750000
vt 0.125000 0.750000
vt 0.625000 0.750000
vt 0.125000 0.500000
vt 0.125000 0.750000
vt 0.375000 0.250000
vt 0.625000 0.250000
vt 0.625000 0.283418
vt 0.375000 0.283418
vt 0.670223 0.750000
vt 0.670223 0.500000
vt 0.828803 0.500000
vt 0.841582 0.500000
vt 0.875000 0.500000
vt 0.875000 0.750000
vt 0.841582 0.750000
vt 0.828803 0.750000
vt 0.375000 0.497777
vt 0.375000 0.489982
vt 0.375000 0.489353
vt 0.000000 0.000000
vt 0.000000 0.000000
vt 0.000000 0.000000
vt 0.000000 0.000000
vt 0.000000 0.000000
vt 0.000000 0.000000
vt 0.000000 0.000000
vt 0.000000 0.000000
vt 0.000000 0.000000
vt 0.000000 0.000000
vt 0.000000 0.000000
vt 0.000000 0.000000
vn -1.0000 -0.0000 0.0000
vn -0.0147 -0.0147 -0.9998
vn 1.0000 0.0000 0.0000
vn 0.0000 0.0000 1.0000
vn 0.0000 1.0000 0.0000
vn 0.0000 0.0000 -1.0000
vn -0.0147 0.0147 0.9998
vn -0.0147 0.0147 -0.9998
vn 0.9996 -0.0272 0.0000
vn -0.9996 -0.0272 0.0000
vn 0.0147 0.0147 -0.9998
vn 0.0000 -1.0000 0.0000
vn 0.0000 -0.0289 0.9996
vn 0.0000 -0.0291 -0.9996
usemtl Aluminum
s off
f 1/1/1 2/2/1 14/3/1 3/4/1
f 20/5/2 21/6/2 19/7/2 6/8/2
f 6/8/3 19/7/3 5/9/3 4/10/3
f 71/11/4 72/12/4 2/13/4 1/14/4
f 21/15/5 69/16/5 5/17/5 19/18/5
f 17/19/1 18/20/1 8/21/1 7/22/1
f 28/23/6 27/24/6 11/25/6 10/26/6
f 10/26/3 11/25/3 9/27/3 22/28/3
f 25/29/5 8/30/5 18/31/5 16/32/5
f 12/33/7 13/34/7 14/3/7 3/4/7
f 40/35/1 41/36/1 18/37/1 17/38/1
f 17/38/8 18/37/8 16/39/8 15/40/8
f 88/41/9 87/42/9 13/43/9 12/44/9
f 32/45/5 14/46/5 13/47/5 87/48/5
f 78/49/10 77/50/10 24/51/10 23/52/10
f 23/52/11 24/51/11 9/27/11 22/28/11
f 49/53/3 50/54/3 19/55/3 6/56/3
f 11/25/5 27/57/5 24/58/5 9/27/5
f 29/59/1 30/60/1 45/61/1 44/62/1
f 42/63/6 43/64/6 34/65/6 33/66/6
f 90/67/4 89/68/4 30/69/4 29/70/4
f 42/71/12 33/66/12 31/72/12 90/73/12
f 43/74/5 45/75/5 30/76/5 89/77/5
f 48/78/1 35/79/1 37/80/1 36/81/1
f 92/82/6 91/83/6 41/84/6 40/85/6
f 46/86/4 47/87/4 35/88/4 48/89/4
f 92/90/12 40/85/12 38/91/12 46/92/12
f 91/93/5 37/94/5 35/95/5 47/96/5
f 44/62/1 45/61/1 35/97/1 48/98/1
f 46/99/3 47/100/3 43/101/3 42/102/3
f 44/103/12 48/98/12 46/99/12 42/104/12
f 35/97/5 45/75/5 43/105/5 47/100/5
f 63/106/6 64/107/6 62/108/6 61/109/6
f 61/109/3 62/108/3 54/110/3 53/111/3
f 76/112/4 75/113/4 50/114/4 49/115/4
f 63/116/12 61/109/12 53/111/12 76/117/12
f 64/118/5 52/119/5 50/120/5 75/121/5
f 73/122/6 74/123/6 60/124/6 59/125/6
f 59/125/3 60/124/3 66/126/3 65/127/3
f 67/128/4 68/129/4 56/130/4 55/131/4
f 73/132/12 59/125/12 65/127/12 67/133/12
f 74/134/5 58/135/5 56/136/5 68/137/5
f 63/138/1 64/139/1 68/140/1 67/141/1
f 67/141/6 68/140/6 66/126/6 65/127/6
f 65/127/3 66/126/3 62/142/3 61/143/3
f 63/144/12 67/141/12 65/127/12 61/145/12
f 68/140/5 64/146/5 62/147/5 66/126/5
f 26/148/6 25/149/6 27/24/6 28/23/6
f 7/22/6 8/21/6 25/149/6 26/148/6
f 27/57/5 25/29/5 16/32/5 24/58/5
f 23/150/13 24/151/13 16/152/13 15/153/13
f 14/154/5 2/155/5 72/156/5 13/157/5
f 70/158/4 69/159/4 72/12/4 71/11/4
f 4/10/4 5/9/4 69/159/4 70/158/4
f 13/157/5 72/156/5 69/16/5 21/15/5
f 12/160/14 13/161/14 21/6/14 20/5/14
f 23/52/12 15/153/12 26/148/12 28/23/12
f 28/23/12 10/26/12 22/28/12 23/52/12
f 22/28/12 57/162/12 78/163/12 23/52/12
f 12/160/12 20/5/12 70/158/12 71/11/12
f 20/5/12 6/8/12 4/10/12 70/158/12
f 88/164/12 12/160/12 3/4/12 31/165/12
f 12/160/12 71/11/12 1/1/12 3/4/12
f 26/148/12 15/153/12 17/19/12 7/22/12
f 60/124/5 74/134/5 68/137/5 66/126/5
f 57/166/12 73/132/12 67/133/12 55/167/12
f 62/108/5 64/118/5 75/121/5 54/110/5
f 57/168/6 58/169/6 74/123/6 73/122/6
f 51/170/12 63/116/12 76/117/12 49/171/12
f 53/111/4 54/110/4 75/113/4 76/112/4
f 51/172/6 52/173/6 64/107/6 63/106/6
f 80/174/10 79/175/10 77/50/10 78/49/10
f 22/28/3 9/27/3 58/176/3 57/162/3
f 24/51/5 77/177/5 58/178/5 9/27/5
f 57/162/3 58/176/3 56/179/3 55/180/3
f 51/181/3 52/182/3 50/54/3 49/53/3
f 55/180/3 56/179/3 52/182/3 51/181/3
f 96/183/10 95/184/10 79/175/10 80/174/10
f 15/153/12 82/185/12 40/35/12 17/38/12
f 18/37/5 41/186/5 83/187/5 16/39/5
f 15/40/9 16/39/9 83/188/9 82/189/9
f 38/190/1 39/191/1 41/36/1 40/35/1
f 33/192/1 34/193/1 39/191/1 38/190/1
f 82/185/12 81/194/12 38/190/12 40/35/12
f 41/186/5 39/195/5 84/196/5 83/187/5
f 82/189/9 83/188/9 84/197/9 81/198/9
f 31/165/1 32/199/1 34/193/1 33/192/1
f 81/194/12 85/200/12 33/192/12 38/190/12
f 39/195/5 34/201/5 86/202/5 84/196/5
f 81/198/9 84/197/9 86/203/9 85/204/9
f 3/4/1 14/3/1 32/199/1 31/165/1
f 85/200/12 88/164/12 31/165/12 33/192/12
f 34/201/5 32/45/5 87/48/5 86/202/5
f 85/204/9 86/203/9 87/42/9 88/41/9
f 34/65/5 43/74/5 89/77/5 32/205/5
f 44/103/12 42/71/12 90/73/12 29/206/12
f 31/72/4 32/205/4 89/68/4 90/67/4
f 44/62/6 45/61/6 43/64/6 42/63/6
f 41/84/5 91/93/5 47/96/5 39/207/5
f 36/208/12 92/90/12 46/92/12 48/209/12
f 38/91/4 39/207/4 47/87/4 46/86/4
f 36/81/6 37/80/6 91/83/6 92/82/6
f 20/210/10 21/211/10 94/212/10 93/213/10
f 93/213/10 94/212/10 95/184/10 96/183/10
f 56/214/5 79/215/5 95/216/5 94/217/5 21/218/5 19/219/5 50/220/5 52/221/5
f 58/178/5 77/177/5 79/215/5 56/214/5
f 80/222/12 55/180/12 51/181/12 96/223/12
f 78/163/12 57/162/12 55/180/12 80/222/12
f 93/224/12 49/53/12 6/56/12 20/5/12
f 96/223/12 51/181/12 49/53/12 93/224/12
f 23/225/12 78/226/12 80/227/12 96/228/12 93/229/12 20/230/12 12/231/12 88/232/12 85/233/12 81/234/12 82/235/12 15/236/12
